<?xml version="1.0" standalone="no"?>
<!DOCTYPE svg PUBLIC "-//W3C//DTD SVG 20010904//EN"
 "http://www.w3.org/TR/2001/REC-SVG-20010904/DTD/svg10.dtd">
<svg version="1.0" xmlns="http://www.w3.org/2000/svg"
 width="503.000000pt" height="503.000000pt" viewBox="0 0 503.000000 503.000000"
 preserveAspectRatio="xMidYMid meet">
<metadata>
Created by potrace 1.14, written by Peter Selinger 2001-2017
</metadata>
<g transform="translate(0.000000,503.000000) scale(0.100000,-0.100000)"
fill="#000000" stroke="none">
<path d="M1040 4172 c-60 -6 -67 -12 -88 -62 l-21 -50 72 0 72 0 17 43 c35 86
40 79 -52 69z"/>
<path d="M1379 3996 c-3 -3 -28 -8 -55 -11 -27 -3 -58 -7 -69 -9 -11 -3 -27
-5 -35 -5 -9 -1 -22 -18 -29 -38 -8 -21 -21 -55 -31 -75 -10 -20 -16 -39 -13
-41 4 -5 67 0 108 8 11 2 32 4 46 4 23 1 31 11 59 75 28 64 37 110 19 92z"/>
<path d="M895 3792 c-2 -2 -19 -4 -38 -4 -31 0 -36 -4 -56 -47 -11 -26 -21
-52 -21 -57 0 -5 19 -8 42 -7 24 0 55 2 69 2 22 1 29 9 48 57 11 31 21 57 21
58 0 4 -61 2 -65 -2z"/>
<path d="M1626 3733 c-1 -1 -41 -4 -90 -6 -48 -2 -91 -8 -95 -13 -9 -11 -71
-160 -71 -172 0 -10 232 -4 242 6 8 8 78 170 78 181 0 6 -58 10 -64 4z"/>
<path d="M2049 3626 c-2 -2 -65 -7 -139 -9 -74 -3 -140 -6 -146 -6 -6 -1 -22
-25 -34 -53 -12 -29 -29 -69 -37 -88 -8 -19 -23 -54 -33 -76 -10 -23 -17 -44
-14 -47 2 -2 28 -2 57 0 101 8 163 11 207 12 l46 1 52 131 c46 115 57 151 41
135z"/>
<path d="M1219 3616 c-2 -2 -26 -7 -54 -10 -27 -4 -59 -9 -70 -11 -11 -2 -26
-4 -33 -4 -11 -1 -43 -62 -73 -140 -9 -23 -9 -23 48 -16 88 10 128 16 132 21
13 13 68 155 62 159 -5 2 -10 3 -12 1z"/>
<path d="M2429 3486 c-2 -2 -47 -7 -99 -10 -218 -14 -245 -17 -251 -24 -4 -4
-31 -65 -60 -137 -29 -71 -57 -136 -63 -144 -9 -11 3 -12 74 -7 87 7 217 17
257 20 33 2 36 8 92 141 28 66 55 128 61 137 8 15 0 34 -11 24z"/>
<path d="M2746 3433 c-1 -1 -55 -4 -120 -7 -115 -6 -146 -15 -146 -41 0 -6
-27 -76 -59 -154 l-60 -142 82 6 c45 3 96 7 112 9 17 3 64 7 105 11 41 3 82 8
90 11 12 3 92 178 136 297 6 16 0 17 -66 15 -39 -2 -72 -4 -74 -5z"/>
<path d="M673 3421 c-8 -6 -43 -89 -43 -103 0 -7 127 -5 134 3 2 2 13 28 24
57 l20 52 -63 -1 c-35 -1 -67 -4 -72 -8z"/>
<path d="M4684 3412 c-40 -3 -46 -8 -215 -205 -96 -111 -235 -272 -309 -357
-74 -86 -214 -248 -310 -360 -96 -111 -185 -214 -198 -229 -13 -14 -75 -97
-139 -184 -75 -103 -118 -154 -123 -145 -3 7 -3 56 0 108 8 128 4 319 -15 620
-3 41 -7 129 -10 195 -3 66 -8 149 -10 185 -2 36 -7 128 -10 205 -4 77 -8 142
-10 145 -2 3 -65 4 -142 3 -76 -1 -159 -2 -184 -2 l-46 -1 -115 -277 c-324
-780 -571 -1371 -583 -1398 -15 -35 -363 -869 -375 -901 l-9 -22 190 2 c104 1
193 7 198 12 5 5 66 146 136 314 69 168 132 319 139 335 8 17 35 82 61 145 26
63 60 144 75 180 102 239 148 364 216 585 42 138 81 255 86 260 11 11 7 -61
-17 -295 -4 -41 -8 -79 -8 -85 0 -14 13 -187 18 -258 11 -132 15 -177 21 -267
4 -52 8 -106 9 -120 1 -14 6 -79 10 -145 5 -66 10 -123 11 -127 1 -5 2 -19 3
-33 1 -24 4 -25 65 -25 l65 0 133 153 c73 83 148 170 168 191 51 56 47 51 150
171 52 61 103 119 115 130 11 11 45 49 75 85 64 76 94 110 145 165 20 22 95
119 167 215 198 266 202 270 210 270 4 0 -52 -121 -126 -268 -96 -192 -206
-440 -386 -873 -138 -332 -260 -623 -271 -646 -10 -24 -19 -44 -19 -46 0 -2
91 -3 203 -2 l202 1 17 35 c20 41 9 14 213 504 92 220 173 414 180 430 8 17
64 152 126 300 61 149 117 284 125 300 28 65 417 1001 421 1015 4 14 -15 16
-139 15 -79 0 -161 -1 -184 -3z"/>
<path d="M1519 3356 c-3 -3 -143 -13 -220 -15 -12 -1 -28 -30 -53 -91 -20 -50
-36 -92 -36 -95 0 -2 30 -3 68 -1 37 3 92 5 122 5 l56 1 31 73 c40 94 53 143
32 123z"/>
<path d="M982 3236 c-40 -7 -74 -10 -77 -8 -4 5 -56 -104 -69 -146 -6 -18 -4
-20 16 -17 13 3 46 7 73 11 102 11 94 4 134 102 34 82 40 77 -77 58z"/>
<path d="M1736 3233 c-1 -1 -30 -3 -64 -4 -34 -1 -68 -7 -76 -13 -13 -11 -106
-226 -106 -246 0 -6 27 -8 73 -5 39 3 107 7 151 10 43 2 80 6 83 8 4 5 89 208
98 236 5 18 0 19 -75 18 -45 -1 -83 -3 -84 -4z"/>
<path d="M2279 3106 c-2 -2 -44 -7 -94 -10 -172 -11 -260 -18 -263 -21 -2 -2
-30 -67 -63 -145 -52 -125 -64 -170 -41 -156 8 5 88 13 222 22 52 4 103 10
113 13 12 5 39 56 78 151 52 127 63 160 48 146z"/>
<path d="M2677 3063 c-2 -1 -156 -12 -261 -18 -37 -2 -70 -6 -72 -8 -7 -6
-134 -311 -134 -320 0 -4 33 -5 73 -1 39 3 90 7 112 9 73 5 180 17 196 21 9 3
23 19 29 37 7 18 19 46 26 62 7 17 31 73 52 125 l39 96 -29 -1 c-16 0 -30 -1
-31 -2z"/>
<path d="M516 3043 c-8 -8 -46 -92 -46 -102 0 -4 31 -7 69 -7 l70 0 25 58 25
58 -68 0 c-37 0 -71 -3 -75 -7z"/>
<path d="M1337 2994 c-1 -1 -47 -5 -102 -9 -55 -4 -101 -8 -103 -10 -5 -5 -72
-169 -72 -178 0 -4 55 -6 122 -4 l123 4 37 88 c21 49 38 94 38 100 0 9 -36 16
-43 9z"/>
<path d="M1686 2873 c-1 -1 -55 -3 -120 -5 -65 -2 -121 -7 -125 -13 -7 -10
-51 -113 -92 -218 -18 -45 -18 -48 -2 -43 14 4 165 14 289 19 10 0 114 233
114 255 0 6 -58 11 -64 5z"/>
<path d="M813 2856 c-34 -6 -66 -15 -72 -21 -5 -5 -23 -41 -40 -79 l-31 -69
67 7 c38 3 77 8 88 10 11 3 24 5 28 5 7 1 43 74 68 139 8 20 6 22 -19 21 -15
-1 -55 -7 -89 -13z"/>
<path d="M2027 2734 c-1 -1 -47 -5 -102 -9 -88 -7 -133 -11 -157 -14 -5 -1 -8
-8 -8 -16 0 -8 -4 -23 -10 -33 -12 -21 -100 -238 -100 -247 0 -4 8 -4 18 -1 9
3 64 8 122 12 58 3 121 7 140 9 19 2 47 4 61 4 16 1 29 8 32 19 2 9 30 77 60
150 l56 133 -55 -2 c-30 -1 -55 -3 -57 -5z"/>
<path d="M2497 2684 c-1 -1 -63 -5 -137 -9 -74 -4 -143 -8 -153 -9 -17 -1 -74
-118 -136 -278 -13 -34 -13 -55 -1 -52 3 1 48 5 100 9 52 3 115 9 140 11 25 3
67 7 93 8 26 2 49 5 50 7 2 3 108 265 124 306 4 9 -7 12 -37 10 -23 -1 -42 -3
-43 -3z"/>
<path d="M373 2662 c-20 -3 -25 -12 -59 -98 -4 -8 83 -12 129 -5 8 1 47 85 47
101 0 8 -68 9 -117 2z"/>
<path d="M1198 2615 c-4 -4 -101 -11 -195 -14 -24 -1 -33 -7 -39 -23 -4 -13
-17 -45 -29 -73 -46 -102 -54 -94 88 -92 l125 2 39 97 c29 70 36 98 27 102 -6
2 -14 3 -16 1z"/>
<path d="M1497 2493 c-2 -1 -49 -3 -105 -4 -57 -2 -106 -8 -111 -13 -8 -11
-101 -242 -101 -252 0 -3 62 -2 138 2 75 4 145 7 154 6 12 0 30 32 67 123 28
68 51 128 51 132 0 8 -87 13 -93 6z"/>
<path d="M749 2486 c-2 -2 -29 -7 -60 -10 -73 -9 -100 -14 -108 -21 -13 -14
-59 -140 -53 -147 4 -3 27 -3 52 2 25 5 62 9 83 10 37 0 39 2 66 63 36 81 45
107 33 107 -5 0 -11 -2 -13 -4z"/>
<path d="M1969 2366 c-4 -4 -87 -12 -224 -22 -49 -4 -97 -8 -105 -9 -8 -2 -18
-4 -21 -4 -6 -1 -111 -237 -123 -278 -7 -20 -4 -22 31 -18 40 4 113 10 248 21
44 3 81 7 83 9 2 2 31 69 63 150 53 128 64 166 48 151z"/>
<path d="M2317 2304 c-3 -3 -196 -13 -243 -14 -45 0 -41 6 -110 -160 -15 -36
-37 -89 -50 -118 l-24 -53 84 6 c46 3 99 7 117 10 19 2 70 6 114 10 44 3 83 9
87 13 4 4 32 68 63 142 30 74 60 143 65 153 9 16 5 17 -46 15 -30 -2 -56 -4
-57 -4z"/>
<path d="M203 2288 c-8 -11 -43 -93 -43 -101 0 -6 131 1 137 7 3 3 16 28 29
55 l23 51 -68 0 c-43 0 -72 -5 -78 -12z"/>
<path d="M866 2220 l-49 -5 -38 -89 c-22 -49 -39 -92 -39 -96 0 -6 61 -5 190
4 30 3 58 5 62 5 3 1 13 20 21 44 9 23 25 66 36 95 l21 53 -77 -3 c-43 -2
-100 -5 -127 -8z"/>
<path d="M517 2111 l-89 -16 -23 -58 c-43 -105 -44 -100 11 -93 27 4 67 9 89
12 22 2 43 8 47 12 6 6 68 150 68 158 0 5 4 5 -103 -15z"/>
<path d="M1164 2102 l-40 -3 -34 -82 c-18 -45 -43 -103 -55 -129 -27 -56 -24
-58 65 -52 53 4 137 9 213 13 10 1 21 11 26 24 5 12 30 71 55 130 l45 108
-117 -3 c-64 -2 -135 -4 -158 -6z"/>
<path d="M1717 1974 c-1 -2 -45 -6 -97 -9 -140 -9 -161 -12 -169 -21 -5 -5
-32 -67 -60 -139 -29 -71 -55 -136 -58 -143 -5 -11 5 -13 43 -8 27 3 90 8 139
11 136 10 179 15 187 23 5 6 37 84 115 280 4 9 -8 12 -46 11 -28 -1 -52 -3
-54 -5z"/>
<path d="M2176 1933 c-1 -2 -82 -7 -269 -17 -34 -2 -33 0 -102 -168 -60 -143
-66 -164 -49 -161 6 1 45 5 85 8 210 15 292 25 300 33 6 7 129 299 129 307 0
4 -89 2 -94 -2z"/>
<path d="M92 1922 c-42 -3 -45 -5 -67 -55 -12 -29 -21 -55 -19 -58 1 -3 18 -4
36 -3 18 1 48 2 66 3 32 1 46 18 66 84 3 9 7 21 8 25 3 8 -22 9 -90 4z"/>
<path d="M857 1863 c-1 0 -44 -3 -94 -5 -51 -3 -95 -6 -97 -9 -4 -4 -76 -180
-76 -186 0 -2 42 -2 93 1 50 2 107 5 125 5 36 1 37 2 87 136 l23 61 -30 -1
c-16 0 -30 -1 -31 -2z"/>
<path d="M439 1746 c-2 -2 -26 -7 -54 -10 -118 -15 -111 -11 -142 -89 -15 -40
-29 -75 -31 -79 -2 -4 7 -5 20 -3 13 2 55 6 93 10 39 4 71 8 72 9 1 1 17 38
36 84 23 53 31 82 23 82 -7 0 -15 -2 -17 -4z"/>
<path d="M1136 1743 c-1 -1 -34 -3 -73 -4 -39 -1 -76 -5 -81 -8 -10 -6 -107
-229 -107 -246 0 -15 292 -3 305 12 4 5 14 26 23 48 9 22 32 77 51 123 l36 83
-76 -3 c-42 -2 -76 -4 -78 -5z"/>
<path d="M1585 1610 c-38 -4 -117 -11 -175 -14 -58 -4 -108 -11 -111 -14 -3
-4 -12 -23 -19 -42 -7 -19 -21 -53 -30 -75 -56 -133 -71 -181 -54 -178 6 1 49
5 95 8 46 4 100 8 119 10 19 2 58 5 87 6 l52 2 60 146 c63 150 66 162 54 160
-5 -1 -39 -5 -78 -9z"/>
<path d="M1947 1544 c-3 -2 -179 -14 -208 -14 -23 0 -29 -9 -64 -97 -21 -54
-44 -111 -51 -128 -7 -16 -20 -47 -28 -68 l-16 -38 83 6 c152 11 311 25 314
28 3 4 133 308 133 313 0 4 -158 2 -163 -2z"/>
<path d="M660 1483 c-8 -1 -46 -4 -84 -5 l-68 -3 -39 -94 c-21 -51 -39 -95
-39 -96 0 -7 245 6 251 13 7 7 79 178 79 187 0 4 -70 3 -100 -2z"/>
<path d="M862 1362 c-33 -2 -45 -8 -52 -25 -4 -12 -29 -71 -54 -130 l-45 -108
155 5 c86 2 157 6 158 8 2 2 74 176 104 250 3 8 -160 8 -266 0z"/>
<path d="M1467 1233 c-2 -1 -34 -5 -73 -7 -38 -3 -107 -8 -154 -11 -47 -4 -88
-10 -91 -13 -4 -4 -34 -71 -67 -150 l-60 -143 56 6 c63 5 242 17 284 19 25 1
32 11 88 143 33 78 60 145 60 150 0 8 -37 13 -43 6z"/>
<path d="M1939 1175 c-3 -2 -57 -7 -120 -10 -276 -13 -262 -9 -289 -84 -7 -20
-21 -54 -31 -76 -30 -67 -78 -185 -76 -186 17 -6 37 -5 37 2 0 6 3 8 8 6 4 -2
39 -1 77 3 39 4 106 11 150 15 76 7 112 11 127 14 4 0 10 11 13 24 4 12 13 36
20 52 71 160 107 263 84 240z"/>
</g>
</svg>
